<?xml version="1.0" encoding="UTF-8" standalone="no"?>
<!-- Created with Inkscape (http://www.inkscape.org/) -->

<svg
   width="106.43772mm"
   height="66.145966mm"
   viewBox="0 0 106.43772 66.145966"
   version="1.1"
   id="svg1"
   xml:space="preserve"
   xmlns="http://www.w3.org/2000/svg"
   xmlns:svg="http://www.w3.org/2000/svg"><defs
     id="defs1" /><g
     id="layer1"
     transform="translate(-28.340922,-143.85826)"><path
       style="fill:#000000"
       d="m 121.8323,209.5626 -0.87087,-0.42886 -0.52394,-0.66608 -0.52395,-0.66609 -0.16728,-0.68461 -0.16728,-0.68462 -0.21986,-0.14544 -0.21986,-0.14545 -0.16935,-0.84674 -0.16935,-0.84674 h 0.57278 0.57278 l 1.01246,0.51652 1.01247,0.51652 0.83732,0.70456 0.83733,0.70456 0.80822,1.17472 0.80823,1.17472 -0.14671,0.38232 -0.14671,0.38233 h -0.56578 -0.56577 l 0.15982,-0.41649 0.15981,-0.41648 -0.80685,-1.17272 -0.80685,-1.17273 -1.03391,-0.52746 -1.03391,-0.52746 h -0.27513 -0.27512 v 0.34373 0.34372 l 0.9103,0.32917 0.9103,0.32917 0.82894,0.77434 0.82894,0.77434 -0.0856,0.58257 -0.0856,0.58256 -0.26458,0.0805 -0.26458,0.0805 z m 3.6622,-1.21203 -0.38056,-0.8599 -1.19706,-1.27987 -1.19706,-1.27988 -0.80208,-0.4389 -0.80207,-0.4389 -1.19063,-0.39789 -1.19062,-0.39789 -0.0815,-0.70489 -0.0815,-0.70489 0.53154,-0.16871 0.53154,-0.1687 1.04729,0.282 1.04729,0.28201 1.54541,1.13972 1.5454,1.13972 0.85495,0.9768 0.85495,0.97679 0.42335,0.81868 0.42336,0.81867 -0.15887,0.63296 -0.15886,0.63297 h -0.59183 -0.59183 z m 2.42254,-0.38082 -0.24588,-0.47908 -0.16261,-0.68248 -0.16261,-0.68248 -1.56331,-1.69877 -1.56332,-1.69877 -1.4633,-0.87862 -1.46329,-0.87863 -1.27915,-0.18208 -1.27915,-0.18207 -0.0845,-0.59252 -0.0845,-0.59251 0.64462,-0.24509 0.64461,-0.24508 0.92562,0.20876 0.92562,0.20876 1.42208,0.7635 1.42209,0.7635 1.88538,1.85208 1.88539,1.85209 0.58023,1.14458 0.58024,1.14459 -0.0818,0.7075 -0.0818,0.70749 -0.57741,0.0822 -0.57741,0.0822 z m -84.529226,-1.58842 -0.122577,-0.21357 0.972111,-3.83646 0.972111,-3.83646 2.334181,-0.0769 2.33418,-0.0769 -0.162359,0.60611 -0.16236,0.6061 -0.0036,0.19844 -0.0036,0.19844 H 48.12309 46.700278 l -0.319758,0.38528 -0.319758,0.38529 0.170684,0.27617 0.170685,0.27617 h 1.159395 1.159395 l 0.156002,0.25242 0.156001,0.25242 -0.165947,0.66118 -0.165947,0.66119 -1.468407,0.0786 -1.468406,0.0786 -0.210315,0.39688 -0.210314,0.39687 -0.346239,1.19063 -0.34624,1.19062 -0.570346,0.0813 -0.570347,0.0813 z m 5.887611,0.002 -0.0059,-0.21601 0.996019,-3.90261 0.996019,-3.9026 h 0.73468 0.73468 l -0.175399,0.7276 -0.175399,0.72761 -0.844291,3.30729 -0.844292,3.30729 -0.705142,0.0837 -0.705142,0.0837 z m 4.768367,-0.31438 v -0.49524 l 0.659365,-2.59929 0.659364,-2.59929 -0.328635,-0.20871 -0.328636,-0.20871 -0.859896,-0.004 -0.859895,-0.004 v -0.47625 -0.47625 l 0.3175,-0.3175 0.3175,-0.3175 h 3.122083 3.122083 v 0.11507 0.11507 l -0.258034,0.67868 -0.258035,0.67868 H 58.270173 57.19179 l -0.344556,0.8599 -0.344557,0.85989 -0.617593,2.4474 -0.617592,2.44739 h -0.61185 -0.61185 z m 5.291667,0.20085 v -0.2944 l 0.926041,-3.68111 0.926042,-3.6811 v -0.1251 -0.12554 h 2.879558 2.879558 l 0.143739,0.54966 0.143739,0.54966 -0.657425,2.55919 -0.657425,2.5592 -0.259403,0.99219 -0.259404,0.99218 h -0.65126 -0.65126 v -0.27024 -0.27025 l 0.689341,-2.80576 0.689342,-2.80576 -0.358613,-0.22723 -0.358612,-0.22724 h -0.926041 -0.926042 l -0.34746,0.22034 -0.34746,0.22034 -0.527845,2.09072 -0.527845,2.09071 -0.259372,0.99219 -0.259373,0.99218 h -0.65126 -0.65126 z m 7.925333,-0.11714 -0.341544,-0.41154 0.907792,-3.62336 0.907793,-3.62336 h 2.907084 2.907084 l -0.01285,1.19063 -0.01285,1.19062 -0.349604,1.24726 -0.349604,1.24726 -2.415673,0.0757 -2.415672,0.0756 v 0.52917 0.52917 l 2.182812,0.0768 2.182813,0.0768 v 0.59784 0.59784 l -0.3175,0.3175 -0.3175,0.3175 h -2.56052 -2.56052 z m 5.568417,-5.01243 0.329377,-0.39687 -0.329377,-0.39688 -0.329377,-0.39687 h -1.105311 -1.105312 l -0.3175,0.3175 -0.3175,0.3175 v 0.47625 0.47625 h 1.422812 1.422811 z m 2.166049,4.56407 0.08291,-0.8599 2.116666,-0.13229 2.116667,-0.13229 0.08455,-0.59532 0.08455,-0.59531 h -1.584263 -1.584262 l -0.418515,-0.1606 -0.418514,-0.1606 0.01168,-0.96388 0.01168,-0.96388 0.347829,-1.32291 0.347829,-1.32292 2.815495,-0.0751 2.815494,-0.0751 v 0.29093 0.29093 l -0.273893,0.51177 -0.273892,0.51177 H 79.46688 77.656503 l -0.329377,0.39688 -0.329377,0.39687 0.329377,0.39688 0.329377,0.39688 h 1.522706 1.522707 l 0.337022,0.40609 0.337021,0.40608 -0.329565,1.51214 -0.329565,1.51215 -0.378034,0.59531 -0.378035,0.59531 h -2.524205 -2.524206 z m 7.240382,0.61751 -0.1498,-0.24238 0.255622,-0.67233 0.255622,-0.67234 2.061375,-0.0775 2.061376,-0.0775 v -0.52917 -0.52917 l -1.795864,-0.13229 -1.795863,-0.13229 -0.250606,-0.39687 -0.250606,-0.39688 0.02187,-0.26458 0.02187,-0.26459 0.437101,-1.71979 0.437101,-1.71979 2.823727,-0.0749 2.823728,-0.0749 -0.196079,0.73635 -0.196078,0.73635 -1.876879,0.0773 -1.87688,0.0773 -0.317349,0.38238 -0.317349,0.38238 0.153588,0.40024 0.153589,0.40025 h 1.695698 1.695699 l 0.33456,0.40312 0.334559,0.40312 -0.472109,1.77969 -0.472109,1.77969 -0.259325,0.33073 -0.259326,0.33073 h -2.46553 -2.46553 z m 10.43732,-0.0638 v -0.30613 l 0.975206,-3.72876 0.975206,-3.72876 0.244708,-0.16601 0.244707,-0.16601 0.466994,0.12213 0.466994,0.12212 -0.225387,0.96993 -0.225387,0.96992 -0.0063,0.47623 -0.0063,0.47622 1.499663,-0.0794 1.499663,-0.0794 0.427101,-1.28015 0.427101,-1.28016 0.400415,-0.22409 0.400416,-0.22408 0.33125,0.20472 0.33124,0.20473 -0.7077,2.62243 -0.707704,2.62244 -0.370613,1.38906 -0.370614,1.38906 h -0.683513 -0.683513 l 0.204623,-0.99218 0.204623,-0.99219 0.02326,-0.66146 0.02326,-0.66146 h -1.447398 -1.447398 l -0.4938,1.65365 -0.4938,1.65364 h -0.63849 -0.638489 z m 8.23505,-0.051 -0.29641,-0.35715 0.24452,-1.1642 0.24451,-1.16421 0.42335,-1.71979 0.42335,-1.71979 0.27812,-0.85989 0.27813,-0.8599 h 0.64094 0.64094 v 0.22545 0.22545 l -0.67707,2.68496 -0.67708,2.68497 0.16352,0.26458 0.16353,0.26459 h 1.29168 1.29169 l 0.18415,-0.29796 0.18415,-0.29796 0.72143,-2.8109 0.72143,-2.81089 0.69754,-0.0837 0.69753,-0.0837 v 0.28635 0.28636 l -0.93096,3.6009 -0.93096,3.6009 -0.14299,0.23136 -0.14299,0.23136 h -2.59782 -2.59782 z m 7.80729,0.14927 -0.12848,-0.20788 0.98593,-3.82701 0.98594,-3.82702 h 2.76494 2.76495 l 0.0861,0.90192 0.086,0.90192 -0.39703,1.08245 -0.39703,1.08246 -0.18164,1.19063 -0.18163,1.19062 -0.35378,0.8599 -0.35377,0.85989 h -2.77601 -2.77601 z m 5.00252,-2.2064 0.17843,-0.5622 -0.35904,-0.2275 -0.35904,-0.2275 -0.83826,-0.004 -0.83826,-0.004 -0.41851,0.1606 -0.41851,0.1606 v 0.63315 0.63315 h 1.43737 1.43738 z m 0.73428,-3.24202 0.13992,-0.36463 -0.29682,-0.29683 -0.29683,-0.29682 h -0.9525 -0.9525 l -0.3175,0.3175 -0.3175,0.3175 v 0.34396 0.34396 h 1.4269 1.42691 z m -76.547892,4.68552 v -0.49897 l 0.412937,-0.58955 0.412936,-0.58955 0.785459,-0.40618 0.785459,-0.40618 0.256813,0.15872 0.256813,0.15872 v 0.46405 0.46405 l -0.727604,0.69209 -0.727604,0.69209 -0.727605,0.17985 -0.727604,0.17984 z m -2.244156,-0.0798 -0.158719,-0.25681 0.385114,-0.73538 0.385113,-0.73537 0.88247,-0.81835 0.88247,-0.81834 1.058333,-0.63687 1.058334,-0.63686 -0.594856,-0.0845 -0.594855,-0.0845 -0.819279,0.58338 -0.819279,0.58338 -0.601155,0.55944 -0.601156,0.55945 -0.692943,1.02359 -0.692944,1.02359 -0.161768,-0.42156 -0.161768,-0.42156 0.560675,-0.90719 0.560674,-0.90719 1.052556,-0.95093 1.052556,-0.95092 v -0.13298 -0.13298 h -0.343576 -0.343576 l -1.066914,1.02519 -1.066914,1.02519 -0.575241,1.22377 -0.57524,1.22377 h -0.230831 -0.230831 l -0.289065,-0.3483 -0.289064,-0.3483 0.277328,-1.0044 0.277327,-1.0044 1.765809,-1.75616 1.765808,-1.75615 1.69028,-0.8599 1.690279,-0.85989 h 0.728278 0.728278 l 0.160363,0.4179 0.160363,0.41789 -0.161601,0.64387 -0.161601,0.64387 0.316907,0.38185 0.316907,0.38185 -0.180771,0.2925 -0.180772,0.29249 -0.664514,0.25265 -0.664515,0.25265 0.332241,0.40032 0.33224,0.40033 -0.29781,0.65362 -0.297811,0.65363 h -0.616902 -0.616903 l -0.880521,0.85989 -0.880521,0.8599 -0.390762,0.59531 -0.390762,0.59531 h -0.483122 -0.483122 z m 89.513688,-4.86948 -1.67682,-1.14716 -1.10103,-0.56085 -1.10102,-0.56085 -4.33712,-1.43176 -4.33712,-1.43176 -1.682,-0.84907 -1.68199,-0.84907 -1.44071,-1.44071 -1.44071,-1.44071 0.14725,-0.56309 0.14725,-0.56309 -2.88551,-3.00154 -2.88551,-3.00105 -0.80558,-1.68793 -0.805577,-1.68794 v -0.27489 -0.27488 l -0.768448,-0.54718 -0.768448,-0.54719 H 97.579588 97.40853 l 0.674923,0.88487 0.674923,0.88487 v 0.5628 0.56279 l 0.641884,1.39661 0.64188,1.3966 1.36024,1.45521 1.36024,1.45521 0.51043,0.79375 0.51043,0.79375 9.9e-4,0.84267 9.9e-4,0.84267 -0.31039,0.74483 -0.31039,0.74483 -0.0203,2.24896 -0.0203,2.24896 -8.262242,0.0699 -8.262245,0.0699 -0.127861,-0.59908 -0.127862,-0.59907 -0.300214,-1.5875 -0.300215,-1.5875 -0.507159,-1.16537 -0.50716,-1.16536 0.143348,-0.14335 0.143347,-0.14335 1.021519,1.17642 1.02152,1.17643 0.535359,0.66146 0.535358,0.66145 0.185941,-0.18521 0.18594,-0.18521 -1.699622,-2.32833 -1.699622,-2.32833 -0.946186,-1.5875 -0.946185,-1.5875 -0.804785,-1.5875 -0.804786,-1.5875 -0.403238,-0.99219 -0.403238,-0.99219 h -0.27129 -0.271289 l -0.4117,0.79614 -0.4117,0.79614 0.290553,0.54291 0.290554,0.5429 0.258141,2.29898 0.258142,2.29898 0.234573,2.64583 0.234572,2.64583 0.593014,1.54387 0.593014,1.54387 -0.376064,0.23802 -0.376063,0.23802 -2.041212,0.004 -2.041212,0.004 -0.26996,-0.50443 -0.269959,-0.50442 0.519003,-1.1733 0.519004,-1.17329 0.290896,-1.3564 0.290896,-1.3564 -0.439835,-3.11745 -0.439835,-3.11744 -0.479542,-1.98437 -0.479543,-1.98438 -0.318412,-1.85208 -0.318413,-1.85209 -0.237501,-1.26979 -0.2375,-1.26979 v -0.4789 -0.47889 l 1.00217,-1.16173 1.002171,-1.16173 0.489685,-1.11664 0.489685,-1.11663 0.492519,-0.44573 0.49252,-0.44572 v 1.01996 1.01997 l 0.23206,-0.25136 0.232061,-0.25135 0.471358,-1.45138 0.471359,-1.45137 0.731437,-0.73144 0.731436,-0.73144 h 0.582066 0.582065 l 1.623591,-1.15857 1.62359,-1.15857 1.04916,-0.49507 1.04916,-0.49508 0.944127,-1.45521 0.944128,-1.4552 0.496474,-1.13485 0.496474,-1.13484 -0.588223,-1.79425 -0.588224,-1.79425 0.275876,-2.20015 0.275876,-2.20015 0.631504,-1.37939 0.631504,-1.37939 0.609743,-0.70126 0.609742,-0.70127 h 4.059933 4.059929 l 1.87304,0.94325 1.87303,0.94324 -0.18545,0.7104 -0.18544,0.71041 0.01,0.66145 0.01,0.66146 0.0121,2.11667 0.0121,2.11667 -0.0579,1.19062 -0.0579,1.19063 0.21708,1.12353 0.21708,1.12353 -0.81518,0.46397 -0.81517,0.46397 -0.002,0.29833 -0.002,0.29833 -0.37619,0.31221 -0.37619,0.31221 -0.18289,1.10925 -0.18289,1.10925 -0.28695,0.35468 -0.28695,0.35469 -1.35926,-0.16983 -1.359258,-0.16983 -0.34065,0.41046 -0.340649,0.41045 h -1.410362 -1.410362 l -0.673908,0.30706 -0.673908,0.30705 v 0.3664 0.36639 l 0.859896,-0.13264 0.859896,-0.13265 1.20462,-0.15232 1.20462,-0.15232 1.395925,0.29937 1.39593,0.29938 0.9204,0.80812 0.9204,0.80812 1.30922,2.68046 1.30922,2.68046 0.20021,1.97512 0.2002,1.97513 0.47906,-0.0822 0.47905,-0.0822 1.13399,0.92922 1.13398,0.92921 0.5766,1.7988 0.57659,1.7988 0.0542,1.5875 0.0542,1.5875 -0.23124,1.02006 -0.23124,1.02005 0.54939,-0.29402 0.54939,-0.29403 2.46185,1.74542 2.46185,1.74541 3.58418,3.68012 3.58418,3.68012 h 0.34621 0.34622 l -0.1244,-0.99219 -0.12439,-0.99219 -0.34355,-0.82088 -0.34355,-0.82088 0.16726,-0.43589 0.16727,-0.43589 h 1.20772 1.20773 l 1.24797,0.63966 1.24798,0.63965 1.7885,1.48495 1.78851,1.48495 0.91692,1.38112 0.91693,1.38113 0.1655,0.82781 0.16549,0.8278 -0.28256,0.17464 -0.28256,0.17463 -1.91078,-0.58039 -1.91079,-0.58038 -0.67758,0.79985 -0.67758,0.79985 -0.83672,0.42655 -0.83671,0.42655 z m -92.481466,-1.16295 -0.581726,-0.45714 -0.261761,-0.70167 -0.261761,-0.70167 -1.008597,-0.325 -1.008596,-0.325 -0.323761,-0.25672 -0.323761,-0.25671 0.403925,-0.78111 0.403926,-0.7811 1.407641,-1.39644 1.407641,-1.39644 1.158028,-0.67709 1.158028,-0.67708 1.116083,-0.33312 1.116083,-0.33312 0.378706,0.31429 0.378706,0.3143 -0.140564,1.04799 -0.140564,1.04798 h 0.25366 0.253659 l 1.963991,-1.49208 1.96399,-1.49208 1.723345,-1.51501 1.723345,-1.51502 1.561665,-1.09395 1.561664,-1.09394 h 0.22072 0.22072 l 0.0099,0.46302 0.0099,0.46302 0.928319,-1.05834 0.928318,-1.05833 0.618737,-1.19062 0.618736,-1.19063 0.803455,-2.64583 0.803455,-2.64584 0.417681,-1.67501 0.417681,-1.67502 v -1.65929 -1.6593 l 0.595312,-0.87419 0.595313,-0.8742 0.396875,-0.20418 0.396875,-0.20417 0.461165,-0.14236 0.461166,-0.14237 -0.599625,-0.86891 -0.599624,-0.86891 -0.853729,-1.16418 -0.853728,-1.16418 v -0.62663 -0.62663 l -0.6731,-1.28728 -0.6731,-1.28728 -0.165186,-1.02295 -0.165186,-1.02296 -0.749214,-0.70146 -0.749214,-0.70147 v -1.09297 -1.09297 l 0.364248,-0.8514 0.364248,-0.85139 0.495648,-0.45024 0.495647,-0.45023 1.631026,-1.44931 1.631026,-1.44932 1.014807,-0.28179 1.014808,-0.28179 0.79375,0.0101 0.79375,0.0101 1.058334,0.40681 1.058333,0.4068 0.571892,0.13712 0.571892,0.13711 0.295847,-0.55279 0.295847,-0.5528 0.772768,-0.39961 0.772767,-0.39961 h 1.079971 1.07997 l 0.882666,0.3688 0.882666,0.3688 0.674244,0.88797 0.674244,0.88797 0.448685,1.12695 0.448685,1.12695 -0.106014,1.78347 -0.106014,1.78346 -0.675277,1.45521 -0.675276,1.45521 -1.384206,1.80128 -1.384205,1.80128 -0.271355,0.77841 -0.271354,0.7784 h -0.209973 -0.209972 l -0.425603,-1.06368 -0.425603,-1.06369 v -0.25139 -0.25139 l 0.67557,-1.47695 0.67557,-1.47694 0.152429,-1.28703 0.152429,-1.28702 -0.59734,-1.23394 -0.59734,-1.23394 -0.374362,-0.14366 -0.374362,-0.14366 -0.102376,0.10238 -0.102377,0.10238 0.557829,1.89422 0.557829,1.89422 -0.33945,1.54182 -0.339451,1.54181 -0.287253,0.6059 -0.287253,0.60589 0.01908,1.26497 0.01908,1.26497 0.42417,0.82026 0.424171,0.82025 0.731596,0.4949 0.731596,0.49489 1.322917,0.56696 1.322917,0.56696 1.190625,0.1308 1.190625,0.1308 0.855146,0.98346 0.855145,0.98346 0.167326,0.89193 0.167327,0.89192 -0.294868,1.17103 -0.294868,1.17102 v 0.14742 0.14742 h 0.364314 0.364313 l 0.44724,1.65365 0.447239,1.65365 0.252769,1.05833 0.252768,1.05833 0.279752,1.85209 0.279751,1.85208 0.410092,2.38125 0.410093,2.38125 0.123158,2.28603 0.123159,2.28604 -0.538062,1.21637 -0.538062,1.21638 -0.968115,1.45853 -0.968114,1.45852 h -1.525827 -1.525826 l -0.436759,-1.14363 -0.436759,-1.14364 0.797688,-2.42058 0.797688,-2.42057 v -0.9002 -0.9002 l -0.525104,-2.08403 -0.525105,-2.08402 -0.0041,-2.05341 -0.0041,-2.0534 0.554156,-1.17892 0.554157,-1.17891 -0.116099,-0.33956 -0.116099,-0.33955 -0.730794,1.5875 -0.730793,1.5875 -0.746517,2.1908 -0.746517,2.1908 -0.883442,1.24878 -0.883442,1.24879 -0.326263,0.74005 -0.326264,0.74005 v 0.92673 0.92674 l 0.399994,0.7735 0.399995,0.7735 -0.393087,-0.15084 -0.393086,-0.15084 -0.78192,-1.27078 -0.781919,-1.27078 -0.108687,-0.88638 -0.108687,-0.88637 -0.04234,1.33711 -0.04234,1.33712 0.666572,1.33763 0.666572,1.33764 1.609,1.29053 1.609001,1.29053 0.502552,0.70577 0.502553,0.70577 v 0.28989 0.28988 h -7.104443 -7.104586 l -0.154643,-2.3151 -0.154643,-2.3151 -0.415501,-1.16289 -0.415501,-1.16288 0.648634,-1.41681 0.648634,-1.4168 h -0.241599 -0.2416 l -1.026392,1.38938 -1.026393,1.38937 -0.371016,0.28829 -0.371016,0.28828 -3.096459,1.23974 -3.096458,1.23973 -2.006691,0.65505 -2.006691,0.65505 -1.299639,0.65858 -1.29964,0.65858 -2.328461,1.61796 -2.328461,1.61796 -0.675937,0.63331 -0.675936,0.6333 -0.382397,-0.006 -0.382397,-0.006 z m 99.841286,-4.15483 -1.25074,-1.44873 -1.644,-1.16254 -1.64399,-1.16253 -0.97102,-0.31269 -0.97102,-0.31268 -0.34191,-0.41197 -0.34191,-0.41198 0.51918,-0.38004 0.51918,-0.38004 0.66146,0.16449 0.66146,0.1645 0.7993,0.37786 0.7993,0.37786 1.61151,1.30394 1.61151,1.30393 0.83034,1.25358 0.83033,1.25358 v 0.61609 0.6161 h -0.21412 -0.21412 z m -103.786172,-0.7796 -0.141884,-0.36974 0.416597,-0.80561 0.416597,-0.80561 1.337082,-1.33708 1.337081,-1.33709 1.03305,-0.52702 1.03305,-0.52702 h 0.936582 0.936582 v 0.40518 0.40518 l -0.463021,0.15152 -0.463021,0.15152 -1.179594,0.56778 -1.179595,0.56778 -1.938811,1.91498 -1.938811,1.91497 z m 104.145772,-2.06276 -1.18709,-1.35684 -1.8041,-1.16706 -1.80409,-1.16707 0.10149,-0.30845 0.10149,-0.30845 0.55428,-0.0819 0.55428,-0.0819 1.09056,0.55637 1.09057,0.55636 1.06557,0.96268 1.06557,0.96268 0.52848,1.03589 0.52847,1.03589 -0.14246,0.37122 -0.14245,0.37122 -0.20674,-0.0119 -0.20674,-0.0119 z m -104.396323,-0.54651 -0.155916,-0.40631 0.402503,-0.77835 0.402503,-0.77836 0.988405,-0.86783 0.988406,-0.86783 1.050494,-0.47032 1.050494,-0.47032 0.355866,0.13656 0.355866,0.13656 -2.69e-4,0.30242 -2.69e-4,0.30242 -1.271183,0.71394 -1.271183,0.71394 -1.3699,1.3699 -1.369901,1.3699 z m 22.700394,-12.15108 -0.297832,-0.35887 -0.273295,-0.71882 -0.273295,-0.71882 0.161579,-0.8079 0.161579,-0.80789 1.144241,-1.24274 1.14424,-1.24274 0.0066,0.79375 0.0066,0.79375 -0.39421,1.67215 -0.39421,1.67215 -0.347077,0.66242 -0.347076,0.66242 z"
       id="path1" /></g></svg>
